#!OML:ASF H:\Not Pregnant\Project 1\Capture day 1\Session 1\non-pregnant.ASF
:FULLY-SPECIFIED
:DEGREES
2577
root -4.1359 16.1844 16.5511 1087.15 -132.487 0.742587
lowerback -1.7875 2.42256 0.45493
upperback -6.22669 2.9174 -1.81973
thorax -5.31995 1.27087 -2.21138
lowerneck 14.8368 -4.30326 -30.8291
upperneck 0.440722 -13.3915 39.7306
head 2.73402 -8.95562 20.9518
rclavicle 4.72114e-015 -2.14687e-014
rhumerus -43.8127 -12.2143 -77.3384
rradius 23.1359
rwrist 28.9574
rhand -5.9852 1.58305
rfingers 7.12502
rthumb 19.8466 -27.4236
lclavicle 4.72114e-015 -2.14687e-014
lhumerus -38.886 -5.92384 85.2621
lradius 32.196
lwrist 38.8326
lhand -18.7986 -11.8417
lfingers 7.12502
lthumb 7.49954 18.0053
rfemur -26.2478 14.662 14.366
rtibia 33.3367
rfoot -21.8509 14.1323
rtoes -15.3888
lfemur -19.7426 -25.6341 -12.8236
ltibia 33.1117
lfoot -20.4874 -25.2929
ltoes -3.71548
2578
root -4.10271 16.1948 16.5024 1087.16 -131.311 0.927361
lowerback -1.80678 2.40751 0.523476
upperback -6.23423 2.90425 -1.76255
thorax -5.31686 1.26409 -2.18949
lowerneck 14.6945 -4.30303 -30.8451
upperneck 0.350391 -13.2826 39.7576
head 2.69837 -8.87654 20.9725
rclavicle 2.95692e-014 1.66979e-014
rhumerus -43.7589 -11.8126 -77.2475
rradius 23.2393
rwrist 29.0397
rhand -6.11118 1.5669
rfingers 7.12502
rthumb 19.7255 -27.4523
lclavicle 2.95692e-014 1.66979e-014
lhumerus -39.0388 -5.57291 84.8347
lradius 31.9386
lwrist 38.821
lhand -18.4246 -11.5102
lfingers 7.12502
lthumb 7.86053 18.3236
rfemur -26.0474 13.9509 14.7595
rtibia 33.1521
rfoot -21.7757 13.7352
rtoes -15.3825
lfemur -20.0745 -25.5561 -12.4581
ltibia 33.2285
lfoot -20.3953 -25.1402
ltoes -4.12592
2579
root -4.07129 16.2044 16.4545 1087.16 -130.202 1.11487
lowerback -1.8168 2.42773 0.61705
upperback -6.2514 2.93632 -1.73771
thorax -5.3246 1.27715 -2.2169
lowerneck 14.6135 -4.30344 -30.8275
upperneck 0.24881 -13.1934 39.8025
head 2.65499 -8.81634 20.9989
rclavicle -1.00883e-014 -1.86858e-014
rhumerus -43.7365 -11.473 -77.1382
rradius 23.3582
rwrist 29.045
rhand -6.26624 1.51735
rfingers 7.12502
rthumb 19.5764 -27.517
lclavicle -1.00883e-014 -1.86858e-014
lhumerus -39.2232 -5.33918 84.4135
lradius 31.7271
lwrist 38.8247
lhand -18.3103 -11.295
lfingers 7.12502
lthumb 7.97087 18.5347
rfemur -25.8609 13.3284 15.1365
rtibia 32.9823
rfoot -21.7057 13.3254
rtoes -15.3805
lfemur -20.3684 -25.3897 -12.1314
ltibia 33.342
lfoot -20.3708 -24.9234
ltoes -4.71254
2580
root -4.03991 16.2134 16.407 1087.18 -129.102 1.28373
lowerback -1.82916 2.45193 0.698798
upperback -6.27258 2.97214 -1.73064
thorax -5.33475 1.29183 -2.25622
lowerneck 14.5466 -4.309 -30.7951
upperneck 0.150539 -13.1213 39.86
head 2.61694 -8.76844 21.0291
rclavicle 6.20705e-014 3.33958e-014
rhumerus -43.7364 -11.202 -76.9964
rradius 23.5017
rwrist 29.0145
rhand -6.45863 1.45043
rfingers 7.12502
rthumb 19.3914 -27.6027
lclavicle 6.20705e-014 3.33958e-014
lhumerus -39.4131 -5.17808 83.9989
lradius 31.5555
lwrist 38.8315
lhand -18.6056 -11.281
lfingers 7.12502
lthumb 7.68587 18.5593
rfemur -25.6994 12.7862 15.4818
rtibia 32.8263
rfoot -21.6329 12.8438
rtoes -15.3823
lfemur -20.6666 -25.177 -11.8286
ltibia 33.4481
lfoot -20.3624 -24.6822
ltoes -5.35755
2581
root -4.00916 16.2219 16.36 1087.2 -128.031 1.44354
lowerback -1.84354 2.48563 0.771091
upperback -6.28882 3.02056 -1.72873
thorax -5.33811 1.31329 -2.29565
lowerneck 14.4826 -4.32311 -30.7721
upperneck 0.0561013 -13.0705 39.9282
head 2.59047 -8.73335 21.066
rclavicle 3.26007e-014 2.14687e-014
rhumerus -43.7324 -10.9813 -76.8097
rradius 23.6478
rwrist 28.9464
rhand -6.68497 1.36646
rfingers 7.12502
rthumb 19.1738 -27.7084
lclavicle 3.26007e-014 2.14687e-014
lhumerus -39.6075 -5.08641 83.6136
lradius 31.44
lwrist 38.864
lhand -19.2154 -11.4023
lfingers 7.12502
lthumb 7.09719 18.4587
rfemur -25.5514 12.3268 15.807
rtibia 32.6795
rfoot -21.5632 12.3028
rtoes -15.4002
lfemur -20.9507 -24.9212 -11.5525
ltibia 33.5491
lfoot -20.3744 -24.3922
ltoes -6.06281
2582
root -3.97884 16.2299 16.3137 1087.22 -126.974 1.59208
lowerback -1.85303 2.52684 0.838687
upperback -6.30777 3.07812 -1.73979
thorax -5.3462 1.33897 -2.34644
lowerneck 14.4461 -4.34251 -30.7362
upperneck -0.0451054 -13.0366 40.0055
head 2.56393 -8.71104 21.1057
rclavicle -1.13108e-013 8.34896e-015
rhumerus -43.7484 -10.8385 -76.5756
rradius 23.8001
rwrist 28.8529
rhand -6.95959 1.26778
rfingers 7.12502
rthumb 18.9097 -27.8331
lclavicle -1.13108e-013 8.34896e-015
lhumerus -39.8084 -5.06646 83.2449
lradius 31.3633
lwrist 38.8968
lhand -19.8539 -11.5506
lfingers 7.12502
lthumb 6.48086 18.3302
rfemur -25.414 11.9466 16.1112
rtibia 32.5418
rfoot -21.4918 11.695
rtoes -15.4033
lfemur -21.2258 -24.6412 -11.3005
ltibia 33.6447
lfoot -20.3922 -24.0585
ltoes -6.79849
2583
root -3.94858 16.238 16.268 1087.24 -125.922 1.72534
lowerback -1.85513 2.57274 0.887874
upperback -6.33057 3.14111 -1.75792
thorax -5.3628 1.36781 -2.39488
lowerneck 14.4356 -4.36468 -30.6974
upperneck -0.149153 -13.0177 40.0923
head 2.53872 -8.70032 21.1513
rclavicle -3.7123e-014 -7.15625e-015
rhumerus -43.7809 -10.7669 -76.285
rradius 23.9545
rwrist 28.7323
rhand -7.25884 1.15698
rfingers 7.12502
rthumb 18.6219 -27.9717
lclavicle -3.7123e-014 -7.15625e-015
lhumerus -40.0194 -5.11449 82.8991
lradius 31.3224
lwrist 38.9239
lhand -20.6353 -11.8168
lfingers 7.12502
lthumb 5.72642 18.0859
rfemur -25.2844 11.6389 16.3964
rtibia 32.4119
rfoot -21.4178 11.0151
rtoes -15.4071
lfemur -21.5011 -24.3326 -11.076
ltibia 33.7362
lfoot -20.3817 -23.7126
ltoes -7.49301
2584
root -3.91865 16.2458 16.2231 1087.28 -124.874 1.83957
lowerback -1.8556 2.60127 0.905047
upperback -6.34959 3.18137 -1.7586
thorax -5.37989 1.3875 -2.40684
lowerneck 14.4041 -4.38409 -30.6925
upperneck -0.231537 -12.9999 40.175
head 2.52624 -8.68805 21.2018
rclavicle -2.54941e-014 2.14687e-014
rhumerus -43.7956 -10.706 -75.943
rradius 24.1049
rwrist 28.595
rhand -7.5487 1.04039
rfingers 7.12502
rthumb 18.343 -28.1148
lclavicle -2.54941e-014 2.14687e-014
lhumerus -40.241 -5.15017 82.575
lradius 31.3175
lwrist 38.9516
lhand -20.7408 -11.7054
lfingers 7.12502
lthumb 5.62465 18.1999
rfemur -25.1625 11.3739 16.665
rtibia 32.2895
rfoot -21.3461 10.2835
rtoes -15.4253
lfemur -21.7728 -23.9963 -10.8837
ltibia 33.8255
lfoot -20.3722 -23.3312
ltoes -8.21887
2585
root -3.88939 16.2534 16.1792 1087.34 -123.833 1.91741
lowerback -1.85215 2.62925 0.897373
upperback -6.37093 3.22017 -1.76233
thorax -5.40291 1.4074 -2.40836
lowerneck 14.3877 -4.40523 -30.6996
upperneck -0.311754 -12.9945 40.2623
head 2.51822 -8.68428 21.2584
rclavicle 1.07344e-014 1.11319e-014
rhumerus -43.8105 -10.6671 -75.5575
rradius 24.2598
rwrist 28.4009
rhand -7.81215 0.910496
rfingers 7.12502
rthumb 18.0896 -28.2683
lclavicle 1.07344e-014 1.11319e-014
lhumerus -40.4734 -5.2233 82.2751
lradius 31.3379
lwrist 38.9828
lhand -20.8126 -11.6207
lfingers 7.12502
lthumb 5.55533 18.2865
rfemur -25.0488 11.146 16.9053
rtibia 32.1745
rfoot -21.2722 9.51465
rtoes -15.4365
lfemur -22.0388 -23.6259 -10.7395
ltibia 33.9146
lfoot -20.3565 -22.9144
ltoes -9.01408
2586
root -3.86127 16.2608 16.1364 1087.42 -122.803 1.97232
lowerback -1.85265 2.63653 0.858306
upperback -6.38293 3.23262 -1.73714
thorax -5.41829 1.41699 -2.36128
lowerneck 14.3276 -4.42535 -30.7722
upperneck -0.36299 -12.9922 40.3426
head 2.53281 -8.6773 21.3242
rclavicle -2.8128e-014 3.73715e-014
rhumerus -43.7938 -10.5957 -75.1235
rradius 24.4219
rwrist 28.1745
rhand -8.0704 0.775249
rfingers 7.12502
rthumb 17.8411 -28.4264
lclavicle -2.8128e-014 3.73715e-014
lhumerus -40.7148 -5.24184 81.9998
lradius 31.3845
lwrist 39.0114
lhand -20.8534 -11.5659
lfingers 7.12502
lthumb 5.51592 18.3423
rfemur -24.9399 10.9353 17.1293
rtibia 32.066
rfoot -21.2001 8.72869
rtoes -15.4283
lfemur -22.2945 -23.2028 -10.6415
ltibia 34.0056
lfoot -20.3539 -22.4614
ltoes -9.88621
